HIERARCHY
ROOT hip
{
  OFFSET 0 90.174 2.4664
  CHANNELS 6 Xposition Yposition Zposition Zrotation Xrotation Yrotation
  JOINT abdomen
  {
    OFFSET 0 -1.186 -1.5018
    CHANNELS 6 Xposition Yposition Zposition Zrotation Xrotation Yrotation
    JOINT abdomen2
    {
      OFFSET 0 9.964 0.2134
      CHANNELS 6 Xposition Yposition Zposition Zrotation Xrotation Yrotation
      JOINT chest
      {
        OFFSET 0 13.134 -3.2573
        CHANNELS 6 Xposition Yposition Zposition Zrotation Xrotation Yrotation
        JOINT neck
        {
          OFFSET 0 20.686 -1.6905
          CHANNELS 6 Xposition Yposition Zposition Zrotation Xrotation Yrotation
          JOINT head
          {
            OFFSET 0 7.238 -0.1237
            CHANNELS 6 Xposition Yposition Zposition Zrotation Xrotation Yrotation
            End Site
            {
              OFFSET 0 0 0
            }
          }
        }
        JOINT lCollar
        {
          OFFSET 1.7069 20.075 5.0056
          CHANNELS 6 Xposition Yposition Zposition Zrotation Xrotation Yrotation
          JOINT lShldr
          {
            OFFSET 13.6458 -0.047 -4.849
            CHANNELS 6 Xposition Yposition Zposition Zrotation Xrotation Yrotation
            JOINT lForeArm
            {
              OFFSET 28.3255 -0.9759 2.2888
              CHANNELS 6 Xposition Yposition Zposition Zrotation Xrotation Yrotation
              JOINT lHand
              {
                OFFSET 22.1583 -0.53 10.8316
                CHANNELS 6 Xposition Yposition Zposition Zrotation Xrotation Yrotation
                JOINT lThumb1
                {
                  OFFSET 0.786 0.112 2.5817
                  CHANNELS 6 Xposition Yposition Zposition Zrotation Xrotation Yrotation
                  JOINT lThumb2
                  {
                    OFFSET 0.3601 -0.878 4.2331
                    CHANNELS 6 Xposition Yposition Zposition Zrotation Xrotation Yrotation
                    JOINT lThumb2_End
                    {
                      OFFSET 1.8127 -1.216 2.2227
                      CHANNELS 6 Xposition Yposition Zposition Zrotation Xrotation Yrotation
                      End Site
                      {
                        OFFSET 0.0181 -0.0122 0.0222
                      }
                    }
                  }
                }
                JOINT lCarpal1
                {
                  OFFSET 0.9571 1.114 1.7695
                  CHANNELS 6 Xposition Yposition Zposition Zrotation Xrotation Yrotation
                  JOINT lIndex1
                  {
                    OFFSET 4.1246 0.487 4.1451
                    CHANNELS 6 Xposition Yposition Zposition Zrotation Xrotation Yrotation
                    JOINT lIndex2
                    {
                      OFFSET 3.4052 -1.454 2.7682
                      CHANNELS 6 Xposition Yposition Zposition Zrotation Xrotation Yrotation
                      JOINT lIndex2_End
                      {
                        OFFSET 1.4531 -1.795 1.2713
                        CHANNELS 6 Xposition Yposition Zposition Zrotation Xrotation Yrotation
                        End Site
                        {
                          OFFSET 0.0145 -0.0179 0.0127
                        }
                      }
                    }
                  }
                  JOINT lMid1
                  {
                    OFFSET 5.6954 0.21 2.1184
                    CHANNELS 6 Xposition Yposition Zposition Zrotation Xrotation Yrotation
                    JOINT lMid2
                    {
                      OFFSET 3.9766 -1.54 2.3863
                      CHANNELS 6 Xposition Yposition Zposition Zrotation Xrotation Yrotation
                      JOINT lMid2_End
                      {
                        OFFSET 1.4042 -1.926 1.125
                        CHANNELS 6 Xposition Yposition Zposition Zrotation Xrotation Yrotation
                        End Site
                        {
                          OFFSET 0.014 -0.0193 0.0113
                        }
                      }
                    }
                  }
                }
                JOINT lCarpal2
                {
                  OFFSET 2.0956 0.66 -0.3894
                  CHANNELS 6 Xposition Yposition Zposition Zrotation Xrotation Yrotation
                  JOINT lRing1
                  {
                    OFFSET 5.0395 -0.09 2.4971
                    CHANNELS 6 Xposition Yposition Zposition Zrotation Xrotation Yrotation
                    JOINT lRing2
                    {
                      OFFSET 3.7921 -1.552 1.4806
                      CHANNELS 6 Xposition Yposition Zposition Zrotation Xrotation Yrotation
                      JOINT lRing2_End
                      {
                        OFFSET 1.4655 -1.808 0.9609
                        CHANNELS 6 Xposition Yposition Zposition Zrotation Xrotation Yrotation
                        End Site
                        {
                          OFFSET 0.0147 -0.0181 0.0096
                        }
                      }
                    }
                  }
                  JOINT lPinky1
                  {
                    OFFSET 4.9141 -1.269 0.3591
                    CHANNELS 6 Xposition Yposition Zposition Zrotation Xrotation Yrotation
                    JOINT lPinky2
                    {
                      OFFSET 3.1477 -1.685 0.8462
                      CHANNELS 6 Xposition Yposition Zposition Zrotation Xrotation Yrotation
                      JOINT lPinky2_End
                      {
                        OFFSET 0.8055 -1.585 0.7955
                        CHANNELS 6 Xposition Yposition Zposition Zrotation Xrotation Yrotation
                        End Site
                        {
                          OFFSET 0.0081 -0.0158 0.008
                        }
                      }
                    }
                  }
                }
              }
            }
          }
        }
        JOINT rCollar
        {
          OFFSET -1.7069 20.075 5.0056
          CHANNELS 6 Xposition Yposition Zposition Zrotation Xrotation Yrotation
          JOINT rShldr
          {
            OFFSET -13.6458 -0.047 -4.849
            CHANNELS 6 Xposition Yposition Zposition Zrotation Xrotation Yrotation
            JOINT rForeArm
            {
              OFFSET -28.3255 -0.9759 2.2888
              CHANNELS 6 Xposition Yposition Zposition Zrotation Xrotation Yrotation
              JOINT rHand
              {
                OFFSET -22.1583 -0.53 10.8316
                CHANNELS 6 Xposition Yposition Zposition Zrotation Xrotation Yrotation
                JOINT rThumb1
                {
                  OFFSET -0.786 0.112 2.5817
                  CHANNELS 6 Xposition Yposition Zposition Zrotation Xrotation Yrotation
                  JOINT rThumb2
                  {
                    OFFSET -0.3601 -0.878 4.2331
                    CHANNELS 6 Xposition Yposition Zposition Zrotation Xrotation Yrotation
                    JOINT rThumb2_End
                    {
                      OFFSET -1.8127 -1.216 2.2227
                      CHANNELS 6 Xposition Yposition Zposition Zrotation Xrotation Yrotation
                      End Site
                      {
                        OFFSET -0.0181 -0.0122 0.0222
                      }
                    }
                  }
                }
                JOINT rCarpal1
                {
                  OFFSET -0.9571 1.114 1.7695
                  CHANNELS 6 Xposition Yposition Zposition Zrotation Xrotation Yrotation
                  JOINT rIndex1
                  {
                    OFFSET -4.1246 0.487 4.1451
                    CHANNELS 6 Xposition Yposition Zposition Zrotation Xrotation Yrotation
                    JOINT rIndex2
                    {
                      OFFSET -3.4052 -1.454 2.7682
                      CHANNELS 6 Xposition Yposition Zposition Zrotation Xrotation Yrotation
                      JOINT rIndex2_End
                      {
                        OFFSET -1.4531 -1.795 1.2713
                        CHANNELS 6 Xposition Yposition Zposition Zrotation Xrotation Yrotation
                        End Site
                        {
                          OFFSET -0.0145 -0.018 0.0127
                        }
                      }
                    }
                  }
                  JOINT rMid1
                  {
                    OFFSET -5.6954 0.21 2.1184
                    CHANNELS 6 Xposition Yposition Zposition Zrotation Xrotation Yrotation
                    JOINT rMid2
                    {
                      OFFSET -3.9766 -1.54 2.3863
                      CHANNELS 6 Xposition Yposition Zposition Zrotation Xrotation Yrotation
                      JOINT rMid2_End
                      {
                        OFFSET -1.4042 -1.926 1.125
                        CHANNELS 6 Xposition Yposition Zposition Zrotation Xrotation Yrotation
                        End Site
                        {
                          OFFSET -0.014 -0.0193 0.0113
                        }
                      }
                    }
                  }
                }
                JOINT rCarpal2
                {
                  OFFSET -2.0956 0.66 -0.3894
                  CHANNELS 6 Xposition Yposition Zposition Zrotation Xrotation Yrotation
                  JOINT rRing1
                  {
                    OFFSET -5.0395 -0.09 2.4971
                    CHANNELS 6 Xposition Yposition Zposition Zrotation Xrotation Yrotation
                    JOINT rRing2
                    {
                      OFFSET -3.7921 -1.552 1.4806
                      CHANNELS 6 Xposition Yposition Zposition Zrotation Xrotation Yrotation
                      JOINT rRing2_End
                      {
                        OFFSET -1.4655 -1.808 0.9609
                        CHANNELS 6 Xposition Yposition Zposition Zrotation Xrotation Yrotation
                        End Site
                        {
                          OFFSET -0.0147 -0.0181 0.0096
                        }
                      }
                    }
                  }
                  JOINT rPinky1
                  {
                    OFFSET -4.9141 -1.269 0.3592
                    CHANNELS 6 Xposition Yposition Zposition Zrotation Xrotation Yrotation
                    JOINT rPinky2
                    {
                      OFFSET -3.1477 -1.685 0.8462
                      CHANNELS 6 Xposition Yposition Zposition Zrotation Xrotation Yrotation
                      JOINT rPinky2_End
                      {
                        OFFSET -0.8055 -1.585 0.7955
                        CHANNELS 6 Xposition Yposition Zposition Zrotation Xrotation Yrotation
                        End Site
                        {
                          OFFSET -0.0081 -0.0158 0.008
                        }
                      }
                    }
                  }
                }
              }
            }
          }
        }
      }
    }
  }
  JOINT lThigh
  {
    OFFSET 8.367 -8.2066 0.5982
    CHANNELS 6 Xposition Yposition Zposition Zrotation Xrotation Yrotation
    JOINT lShin
    {
      OFFSET 2.1923 -43.463 -0.4932
      CHANNELS 6 Xposition Yposition Zposition Zrotation Xrotation Yrotation
      JOINT lFoot
      {
        OFFSET 0.7333 -45.8593 -2.6451
        CHANNELS 6 Xposition Yposition Zposition Zrotation Xrotation Yrotation
        End Site
        {
          OFFSET 2.6618 -4.2699 12.3931
        }
      }
    }
  }
  JOINT rThigh
  {
    OFFSET -8.367 -8.2066 0.5982
    CHANNELS 6 Xposition Yposition Zposition Zrotation Xrotation Yrotation
    JOINT rShin
    {
      OFFSET -2.1923 -43.463 -0.4931
      CHANNELS 6 Xposition Yposition Zposition Zrotation Xrotation Yrotation
      JOINT rFoot
      {
        OFFSET -0.7333 -45.8593 -2.6451
        CHANNELS 6 Xposition Yposition Zposition Zrotation Xrotation Yrotation
        End Site
        {
          OFFSET -2.6618 -4.2699 12.3931
        }
      }
    }
  }
}
MOTION
Frames:	4
Frame Time:	0.0333333
-42.2978 14.7895 -11.9368 -180 -13.5596 -180 0 -1.186 -1.5018 -0.127524 14.7681 -0.0812918 0 9.964 0.2134 -0.245436 29.5365 -0.134277 0 13.134 -3.2573 -0.245436 29.5364 -0.134277 7.10543e-015 20.686 -1.6905 4.22748e-007 25.5982 -9.66235e-007 0 7.238 -0.1237 -1.98795e-007 17.5488 1.47686e-007 1.7069 20.075 5.0056 14.9646 -5.19527 0.0224882 13.6458 -0.047 -4.849 -62.5385 8.5255 25.2946 28.3255 -0.9759 2.2888 13.0267 32.8661 -26.8402 22.1583 -0.53 10.8316 -10.4258 39.3059 27.2008 0.786 0.112 2.5817 2.08155e-006 -1.20227e-006 -2.251e-007 0.3601 -0.878 4.2331 2.1982e-007 -8.20954e-007 -6.87007e-008 1.8127 -1.216 2.2227 1.86173e-006 -3.81314e-007 -1.564e-007 0.9571 1.114 1.7695 0 0 -0 4.1246 0.487 4.1451 2.08155e-006 -1.20227e-006 -2.251e-007 3.4052 -1.454 2.7682 2.1982e-007 -8.20954e-007 -6.87007e-008 1.4531 -1.795 1.2713 1.86173e-006 -3.81314e-007 -1.564e-007 5.6954 0.21 2.1184 2.08155e-006 -1.20227e-006 -2.251e-007 3.9766 -1.54 2.3863 2.1982e-007 -8.20954e-007 -6.87007e-008 1.4042 -1.926 1.125 1.86173e-006 -3.81314e-007 -1.564e-007 2.0956 0.66 -0.3894 0 0 -0 5.0395 -0.09 2.4971 2.08155e-006 -1.20227e-006 -2.251e-007 3.7921 -1.552 1.4806 2.1982e-007 -8.20954e-007 -6.87007e-008 1.4655 -1.808 0.9609 1.86173e-006 -3.81314e-007 -1.564e-007 4.9141 -1.269 0.3591 2.08155e-006 -1.20227e-006 -2.251e-007 3.1477 -1.685 0.8462 2.1982e-007 -8.20954e-007 -6.87007e-008 0.8055 -1.585 0.7955 1.86173e-006 -3.81314e-007 -1.564e-007 -1.7069 20.075 5.0056 -15.4183 -5.0648 0.0815456 -13.6458 -0.047 -4.849 63.3412 8.0834 -25.1072 -28.3255 -0.9759 2.2888 -12.6679 33.1986 24.8653 -22.1583 -0.53 10.8316 9.64128 40.1017 -26.1903 -0.786 0.112 2.5817 -1.05712e-006 4.10091e-007 3.5343e-006 -0.3601 -0.878 4.2331 -7.95139e-016 -1.19271e-015 -3.18055e-015 -1.8127 -1.216 2.2227 -5.30914e-007 -6.44156e-008 -1.2854e-007 -0.9571 1.114 1.7695 -2.18663e-015 -7.95139e-016 -0 -4.1246 0.487 4.1451 -1.05712e-006 4.10091e-007 3.5343e-006 -3.4052 -1.454 2.7682 1.98785e-016 7.95139e-016 -6.36111e-015 -1.4531 -1.795 1.2713 -5.30914e-007 -6.44156e-008 -1.2854e-007 -5.6954 0.21 2.1184 -1.05712e-006 4.10091e-007 3.5343e-006 -3.9766 -1.54 2.3863 1.98785e-016 7.95139e-016 -6.36111e-015 -1.4042 -1.926 1.125 -5.30914e-007 -6.44156e-008 -1.2854e-007 -2.0956 0.66 -0.3894 -2.18663e-015 -7.95139e-016 -0 -5.0395 -0.09 2.4971 -1.05712e-006 4.10091e-007 3.5343e-006 -3.7921 -1.552 1.4806 1.98785e-016 7.95139e-016 -6.36111e-015 -1.4655 -1.808 0.9609 -5.30914e-007 -6.44156e-008 -1.2854e-007 -4.9141 -1.269 0.3592 -1.05712e-006 4.10091e-007 3.5343e-006 -3.1477 -1.685 0.8462 1.98785e-016 7.95139e-016 -6.36111e-015 -0.8055 -1.585 0.7955 -5.30914e-007 -6.44156e-008 -1.2854e-007 8.367 -8.2066 0.5982 152.204 -55.938 162.004 2.1923 -43.463 -0.4932 9.51771 6.65089 -0.316952 0.7333 -45.8593 -2.6451 10.8954 29.4046 -11.2279 -8.367 -8.2066 0.5982 -155.046 -44.0028 -167.646 -2.1923 -43.463 -0.4931 -13.5156 32.4547 11.5864 -0.7333 -45.8593 -2.6451 -14.4432 20.05 5.78574 
-42.3012 14.7949 -11.9136 -180 -13.9459 -180 0 -1.186 -1.5018 -0.12565 14.6283 -0.0820985 7.10543e-015 9.964 0.2134 -0.241238 29.2567 -0.136778 0 13.134 -3.2573 -0.241238 29.2567 -0.136778 7.10543e-015 20.686 -1.6905 1.65557e-007 25.3317 1.87875e-009 7.10543e-015 7.238 -0.1237 -1.23936e-007 17.249 -1.03517e-007 1.7069 20.075 5.0056 14.4751 -4.96523 0.193524 13.6458 -0.047 -4.849 -62.1829 8.62518 25.1886 28.3255 -0.9759 2.2888 13.0995 32.8142 -26.3793 22.1583 -0.53 10.8316 -10.2483 39.5089 27.0115 0.786 0.112 2.5817 1.98785e-016 -3.97569e-016 3.18055e-015 0.3601 -0.878 4.2331 1.54933e-006 -9.42749e-007 3.358e-006 1.8127 -1.216 2.2227 3.11692e-007 5.5865e-007 -3.51498e-006 0.9571 1.114 1.7695 1.98785e-016 0 3.18055e-015 4.1246 0.487 4.1451 -2.5842e-015 -2.78299e-015 1.27222e-014 3.4052 -1.454 2.7682 1.54933e-006 -9.42749e-007 3.358e-006 1.4531 -1.795 1.2713 3.11692e-007 5.5865e-007 -3.51498e-006 5.6954 0.21 2.1184 -2.5842e-015 -2.78299e-015 1.27222e-014 3.9766 -1.54 2.3863 1.54933e-006 -9.42749e-007 3.358e-006 1.4042 -1.926 1.125 3.11692e-007 5.5865e-007 -3.51498e-006 2.0956 0.66 -0.3894 1.98785e-016 0 3.18055e-015 5.0395 -0.09 2.4971 -2.5842e-015 -2.78299e-015 1.27222e-014 3.7921 -1.552 1.4806 1.54933e-006 -9.42749e-007 3.358e-006 1.4655 -1.808 0.9609 3.11692e-007 5.5865e-007 -3.51498e-006 4.9141 -1.269 0.3591 -2.5842e-015 -2.78299e-015 1.27222e-014 3.1477 -1.685 0.8462 1.54933e-006 -9.42749e-007 3.358e-006 0.8055 -1.585 0.7955 3.11692e-007 5.5865e-007 -3.51498e-006 -1.7069 20.075 5.0056 -14.9123 -4.83845 -0.0931293 -13.6458 -0.047 -4.849 62.9642 8.19857 -24.9842 -28.3255 -0.9759 2.2888 -12.81 33.1174 24.4684 -22.1583 -0.53 10.8316 9.45979 40.2984 -25.9778 -0.786 0.112 2.5817 -1.39149e-015 -2.38542e-015 -6.36111e-015 -0.3601 -0.878 4.2331 4.40041e-007 8.47132e-007 1.48694e-006 -1.8127 -1.216 2.2227 9.93923e-016 0 -0 -0.9571 1.114 1.7695 -1.39149e-015 -2.78299e-015 -6.36111e-015 -4.1246 0.487 4.1451 5.96354e-016 -3.97569e-016 3.18055e-015 -3.4052 -1.454 2.7682 4.40041e-007 8.47132e-007 1.48694e-006 -1.4531 -1.795 1.2713 -2.18663e-015 1.19271e-015 -3.18055e-015 -5.6954 0.21 2.1184 5.96354e-016 -3.97569e-016 3.18055e-015 -3.9766 -1.54 2.3863 4.40041e-007 8.47132e-007 1.48694e-006 -1.4042 -1.926 1.125 -2.18663e-015 1.19271e-015 -3.18055e-015 -2.0956 0.66 -0.3894 -1.39149e-015 -2.78299e-015 -6.36111e-015 -5.0395 -0.09 2.4971 5.96354e-016 -3.97569e-016 3.18055e-015 -3.7921 -1.552 1.4806 4.40041e-007 8.47132e-007 1.48694e-006 -1.4655 -1.808 0.9609 -2.18663e-015 1.19271e-015 -3.18055e-015 -4.9141 -1.269 0.3592 5.96354e-016 -3.97569e-016 3.18055e-015 -3.1477 -1.685 0.8462 4.40041e-007 8.47132e-007 1.48694e-006 -0.8055 -1.585 0.7955 -2.18663e-015 1.19271e-015 -3.18055e-015 8.367 -8.2066 0.5982 152.23 -55.6639 161.998 2.1923 -43.463 -0.4932 9.51677 6.60247 -0.310188 0.7333 -45.8593 -2.6451 10.8857 29.5158 -11.09 -8.367 -8.2066 0.5982 -155.188 -43.6902 -167.715 -2.1923 -43.463 -0.4931 -13.516 32.4542 11.5786 -0.7333 -45.8593 -2.6451 -14.3868 20.1082 5.65045 
-42.3046 14.8004 -11.8902 180 -14.3322 180 7.10543e-015 -1.186 -1.5018 -0.12378 14.4883 -0.0828973 0 9.964 0.2134 -0.237066 28.9767 -0.139244 7.10543e-015 13.134 -3.2573 -0.237066 28.9768 -0.139244 0 20.686 -1.6905 1.66317e-006 25.0651 -2.47077e-006 -7.10543e-015 7.238 -0.1237 -8.61623e-008 16.9491 -9.70185e-008 1.7069 20.075 5.0056 13.9849 -4.73649 0.366564 13.6458 -0.047 -4.849 -61.8269 8.72421 25.0818 28.3255 -0.9759 2.2888 13.1727 32.7627 -25.9183 22.1583 -0.53 10.8316 -10.0695 39.7115 26.8207 0.786 0.112 2.5817 9.30157e-007 -1.93426e-007 -7.87555e-008 0.3601 -0.878 4.2331 2.18663e-015 7.95139e-016 9.54166e-015 1.8127 -1.216 2.2227 2.5842e-015 2.78299e-015 6.36111e-015 0.9571 1.114 1.7695 2.18663e-015 -1.98785e-015 -9.54166e-015 4.1246 0.487 4.1451 9.30157e-007 -1.93426e-007 -7.87555e-008 3.4052 -1.454 2.7682 3.57812e-015 2.38542e-015 3.18055e-015 1.4531 -1.795 1.2713 -7.95139e-016 3.57812e-015 3.18055e-015 5.6954 0.21 2.1184 9.30157e-007 -1.93426e-007 -7.87555e-008 3.9766 -1.54 2.3863 3.57812e-015 2.38542e-015 3.18055e-015 1.4042 -1.926 1.125 -7.95139e-016 3.57812e-015 3.18055e-015 2.0956 0.66 -0.3894 2.18663e-015 -1.98785e-015 -9.54166e-015 5.0395 -0.09 2.4971 9.30157e-007 -1.93426e-007 -7.87555e-008 3.7921 -1.552 1.4806 3.57812e-015 2.38542e-015 3.18055e-015 1.4655 -1.808 0.9609 -7.95139e-016 3.57812e-015 3.18055e-015 4.9141 -1.269 0.3591 9.30157e-007 -1.93426e-007 -7.87555e-008 3.1477 -1.685 0.8462 3.57812e-015 2.38542e-015 3.18055e-015 0.8055 -1.585 0.7955 -7.95139e-016 3.57812e-015 3.18055e-015 -1.7069 20.075 5.0056 -14.4055 -4.61348 -0.269854 -13.6458 -0.047 -4.849 62.5867 8.31295 -24.8605 -28.3255 -0.9759 2.2888 -12.9527 33.037 24.0715 -22.1583 -0.53 10.8316 9.27677 40.4945 -25.7638 -0.786 0.112 2.5817 1.85664e-006 3.94762e-007 -1.63387e-007 -0.3601 -0.878 4.2331 -1.64321e-006 4.26845e-007 8.16936e-008 -1.8127 -1.216 2.2227 2.13423e-007 8.21607e-007 -8.16935e-008 -0.9571 1.114 1.7695 1.98785e-016 3.97569e-016 -3.18055e-015 -4.1246 0.487 4.1451 1.85664e-006 3.94762e-007 -1.63387e-007 -3.4052 -1.454 2.7682 -1.64321e-006 4.26845e-007 8.16936e-008 -1.4531 -1.795 1.2713 2.13423e-007 8.21607e-007 -8.16935e-008 -5.6954 0.21 2.1184 1.85664e-006 3.94762e-007 -1.63387e-007 -3.9766 -1.54 2.3863 -1.64321e-006 4.26845e-007 8.16936e-008 -1.4042 -1.926 1.125 2.13423e-007 8.21607e-007 -8.16935e-008 -2.0956 0.66 -0.3894 1.98785e-016 3.97569e-016 -3.18055e-015 -5.0395 -0.09 2.4971 1.85664e-006 3.94762e-007 -1.63387e-007 -3.7921 -1.552 1.4806 -1.64321e-006 4.26845e-007 8.16936e-008 -1.4655 -1.808 0.9609 2.13423e-007 8.21607e-007 -8.16935e-008 -4.9141 -1.269 0.3592 1.85664e-006 3.94762e-007 -1.63387e-007 -3.1477 -1.685 0.8462 -1.64321e-006 4.26845e-007 8.16936e-008 -0.8055 -1.585 0.7955 2.13423e-007 8.21607e-007 -8.16935e-008 8.367 -8.2066 0.5982 152.256 -55.3898 161.992 2.1923 -43.463 -0.4932 9.51583 6.55398 -0.303377 0.7333 -45.8593 -2.6451 10.8758 29.6269 -10.952 -8.367 -8.2066 0.5982 -155.329 -43.3774 -167.783 -2.1923 -43.463 -0.4931 -13.5164 32.4538 11.5709 -0.7333 -45.8593 -2.6451 -14.3301 20.1662 5.51501 
-42.308 14.8062 -11.8667 180 -14.7187 180 0 -1.186 -1.5018 -0.121914 14.3482 -0.0836875 7.10543e-015 9.964 0.2134 -0.23292 28.6966 -0.141675 0 13.134 -3.2573 -0.23292 28.6965 -0.141675 0 20.686 -1.6905 -8.63561e-006 24.7991 3.89819e-006 7.10543e-015 7.238 -0.1237 1.04471e-007 16.6492 -1.07155e-007 1.7069 20.075 5.0056 13.4938 -4.50916 0.541616 13.6458 -0.047 -4.849 -61.4705 8.82259 24.9744 28.3255 -0.9759 2.2888 13.2464 32.7116 -25.4573 22.1583 -0.53 10.8316 -9.88915 39.9137 26.6286 0.786 0.112 2.5817 4.57205e-015 7.95139e-016 -9.54166e-015 0.3601 -0.878 4.2331 5.56597e-015 -3.97569e-016 -3.18055e-015 1.8127 -1.216 2.2227 4.37326e-015 -3.97569e-016 -3.18055e-015 0.9571 1.114 1.7695 1.78906e-015 2.78299e-015 -6.36111e-015 4.1246 0.487 4.1451 -1.39149e-015 -3.97569e-016 -3.18055e-015 3.4052 -1.454 2.7682 3.37934e-015 3.97569e-016 -9.54166e-015 1.4531 -1.795 1.2713 2.78299e-015 -7.95139e-016 -9.54166e-015 5.6954 0.21 2.1184 -1.39149e-015 -3.97569e-016 -3.18055e-015 3.9766 -1.54 2.3863 3.37934e-015 3.97569e-016 -9.54166e-015 1.4042 -1.926 1.125 2.78299e-015 -7.95139e-016 -9.54166e-015 2.0956 0.66 -0.3894 1.78906e-015 2.78299e-015 -6.36111e-015 5.0395 -0.09 2.4971 -1.39149e-015 -3.97569e-016 -3.18055e-015 3.7921 -1.552 1.4806 3.37934e-015 3.97569e-016 -9.54166e-015 1.4655 -1.808 0.9609 2.78299e-015 -7.95139e-016 -9.54166e-015 4.9141 -1.269 0.3591 -1.39149e-015 -3.97569e-016 -3.18055e-015 3.1477 -1.685 0.8462 3.37934e-015 3.97569e-016 -9.54166e-015 0.8055 -1.585 0.7955 2.78299e-015 -7.95139e-016 -9.54166e-015 -1.7069 20.075 5.0056 -13.8978 -4.38995 -0.44862 -13.6458 -0.047 -4.849 62.2089 8.42657 -24.7359 -28.3255 -0.9759 2.2888 -13.0961 32.9574 23.6746 -22.1583 -0.53 10.8316 9.09224 40.6901 -25.5484 -0.786 0.112 2.5817 1.07001e-006 6.74593e-008 -1.36094e-007 -0.3601 -0.878 4.2331 -6.45546e-007 1.5763e-006 -2.78423e-008 -1.8127 -1.216 2.2227 2.4813e-007 2.79691e-007 -9.5096e-008 -0.9571 1.114 1.7695 -9.93923e-016 3.97569e-016 3.18055e-015 -4.1246 0.487 4.1451 1.07001e-006 6.74593e-008 -1.36094e-007 -3.4052 -1.454 2.7682 -6.45546e-007 1.5763e-006 -2.78423e-008 -1.4531 -1.795 1.2713 2.4813e-007 2.79691e-007 -9.5096e-008 -5.6954 0.21 2.1184 1.07001e-006 6.74593e-008 -1.36094e-007 -3.9766 -1.54 2.3863 -6.45546e-007 1.5763e-006 -2.78423e-008 -1.4042 -1.926 1.125 2.4813e-007 2.79691e-007 -9.5096e-008 -2.0956 0.66 -0.3894 -9.93923e-016 3.97569e-016 3.18055e-015 -5.0395 -0.09 2.4971 1.07001e-006 6.74593e-008 -1.36094e-007 -3.7921 -1.552 1.4806 -6.45546e-007 1.5763e-006 -2.78423e-008 -1.4655 -1.808 0.9609 2.4813e-007 2.79691e-007 -9.5096e-008 -4.9141 -1.269 0.3592 1.07001e-006 6.74593e-008 -1.36094e-007 -3.1477 -1.685 0.8462 -6.45546e-007 1.5763e-006 -2.78423e-008 -0.8055 -1.585 0.7955 2.4813e-007 2.79691e-007 -9.5096e-008 8.367 -8.2066 0.5982 152.282 -55.1156 161.986 2.1923 -43.463 -0.4932 9.5149 6.50541 -0.2966 0.7333 -45.8593 -2.6451 10.8656 29.7382 -10.8138 -8.367 -8.2066 0.5982 -155.468 -43.0643 -167.849 -2.1923 -43.463 -0.4931 -13.5168 32.4535 11.5633 -0.7333 -45.8593 -2.6451 -14.2732 20.2241 5.37946 
